 <svg width="36" height="36" viewBox="0 0 36 36" fill="none" xmlns="http://www.w3.org/2000/svg">
                        <path d="M18.4523 0.476196C8.7885 0.476196 0.952148 8.50939 0.952148 18.4192C0.952148 26.347 5.96647 33.0728 12.9198 35.4454C13.7944 35.6115 14.1155 35.0561 14.1155 34.5822C14.1155 34.1543 14.0993 32.7409 14.0917 31.2416C9.22319 32.327 8.19587 29.1245 8.19587 29.1245C7.3998 27.0506 6.25279 26.4991 6.25279 26.4991C4.665 25.3854 6.37248 25.4083 6.37248 25.4083C8.12979 25.5349 9.05511 27.2574 9.05511 27.2574C10.6159 30.0005 13.149 29.2074 14.1477 28.749C14.3047 27.5893 14.7583 26.7977 15.2588 26.3496C11.3717 25.8959 7.28562 24.3574 7.28562 17.4821C7.28562 15.5231 7.96925 13.9225 9.08873 12.6659C8.90702 12.214 8.30802 10.389 9.25826 7.91751C9.25826 7.91751 10.7278 7.43526 14.072 9.75674C15.468 9.35918 16.9651 9.1598 18.4523 9.15297C19.9395 9.1598 21.4378 9.35918 22.8363 9.75674C26.1765 7.43526 27.644 7.91751 27.644 7.91751C28.5966 10.389 27.9973 12.214 27.8156 12.6659C28.9377 13.9225 29.6166 15.5231 29.6166 17.4821C29.6166 24.3737 25.5227 25.8912 21.6258 26.3354C22.2535 26.8922 22.8128 27.9841 22.8128 29.6582C22.8128 32.059 22.7926 33.9912 22.7926 34.5822C22.7926 35.0597 23.1076 35.6192 23.9946 35.443C30.9442 33.0677 35.9521 26.3443 35.9521 18.4192C35.9521 8.50939 28.117 0.476196 18.4523 0.476196Z" fill="#4E4B66"/>
                        <path d="M7.63167 26.1152C7.59322 26.2035 7.45675 26.2299 7.33242 26.1694C7.20578 26.1114 7.13465 25.9911 7.17571 25.9026C7.21329 25.8118 7.35005 25.7865 7.47641 25.8473C7.60334 25.9053 7.67562 26.0267 7.63167 26.1152Z" fill="#4E4B66"/>
                        <path d="M8.33943 26.9177C8.25616 26.9963 8.09337 26.9598 7.98292 26.8357C7.86872 26.7119 7.84732 26.5463 7.93175 26.4666C8.01762 26.3881 8.17549 26.4249 8.28999 26.5487C8.40419 26.6739 8.42646 26.8383 8.33943 26.9177Z" fill="#4E4B66"/>
                        <path d="M9.0281 27.9409C8.92112 28.0165 8.74619 27.9456 8.63805 27.7877C8.53107 27.6298 8.53107 27.4404 8.64037 27.3645C8.74879 27.2887 8.92112 27.3569 9.0307 27.5136C9.13739 27.6742 9.13739 27.8636 9.0281 27.9409Z" fill="#4E4B66"/>
                        <path d="M9.97137 28.9294C9.87567 29.0368 9.67183 29.008 9.52263 28.8615C9.36997 28.7183 9.32747 28.5151 9.42346 28.4078C9.52032 28.3001 9.72532 28.3304 9.87567 28.4757C10.0272 28.6186 10.0734 28.8233 9.97137 28.9294Z" fill="#4E4B66"/>
                        <path d="M11.2731 29.5035C11.2309 29.6426 11.0345 29.7059 10.8368 29.6468C10.6393 29.5859 10.5101 29.423 10.55 29.2824C10.591 29.1424 10.7882 29.0765 10.9874 29.1398C11.1846 29.2003 11.3141 29.3621 11.2731 29.5035Z" fill="#4E4B66"/>
                        <path d="M12.7027 29.61C12.7076 29.7565 12.5399 29.878 12.3323 29.8806C12.1236 29.8853 11.9547 29.7668 11.9524 29.6227C11.9524 29.4748 12.1163 29.3545 12.3251 29.351C12.5327 29.3468 12.7027 29.4645 12.7027 29.61Z" fill="#4E4B66"/>
                        <path d="M14.0328 29.3797C14.0576 29.5226 13.9134 29.6694 13.7072 29.7085C13.5045 29.7461 13.3169 29.6579 13.2911 29.5161C13.266 29.3697 13.4129 29.2229 13.6153 29.185C13.8217 29.1485 14.0065 29.2344 14.0328 29.3797Z" fill="#4E4B66"/>
                    </svg>       