 <svg width="36" height="36" viewBox="0 0 36 36" fill="none" xmlns="http://www.w3.org/2000/svg">
                        <path fill-rule="evenodd" clip-rule="evenodd" d="M0.952148 17.9762C0.952148 27.6412 8.78717 35.4762 18.4521 35.4762C28.1171 35.4762 35.9521 27.6412 35.9521 17.9762C35.9521 8.31121 28.1171 0.476196 18.4521 0.476196C8.78717 0.476196 0.952148 8.31121 0.952148 17.9762ZM15.2438 25.997L15.5416 21.5362L15.5413 21.536L23.6562 14.213C24.0123 13.8969 23.5784 13.7428 23.1056 14.0295L13.0908 20.3477L8.76497 18.9975C7.83077 18.7115 7.82406 18.0695 8.9747 17.608L25.8316 11.1081C26.6015 10.7585 27.3446 11.293 27.0507 12.4714L24.1799 25.9993C23.9795 26.9606 23.3986 27.1905 22.5938 26.7465L18.2208 23.5156L16.1188 25.5595C16.1122 25.566 16.1056 25.5724 16.0991 25.5788C15.864 25.8077 15.6695 25.997 15.2438 25.997Z" fill="#4E4B66"/>
                        </svg>