<svg width="155" height="45" viewBox="0 0 155 45" fill="none" xmlns="http://www.w3.org/2000/svg">
    <path d="M153.52 39.6988C153.52 42.0755 151.555 44.0007 149.124 44.0007H5.25951C2.82984 44.0007 0.857666 42.0755 0.857666 39.6988V5.39311C0.857666 3.01756 2.82984 1.08566 5.25951 1.08566H149.123C151.555 1.08566 153.519 3.01756 153.519 5.39311L153.52 39.6988Z" fill="black"/>
    <path d="M148.66 1.13751C151.307 1.13751 153.461 3.2378 153.461 5.81891V39.2674C153.461 41.8485 151.307 43.9488 148.66 43.9488H5.71769C3.0704 43.9488 0.916259 41.8485 0.916259 39.2674V5.81891C0.916259 3.2378 3.0704 1.13751 5.71769 1.13751H148.66ZM148.66 0.244164H5.71769C2.57439 0.244164 0 2.75419 0 5.81891V39.2674C0 42.3321 2.57439 44.8421 5.71769 44.8421H148.66C151.803 44.8421 154.378 42.3321 154.378 39.2674V5.81891C154.378 2.75419 151.803 0.244164 148.66 0.244164Z" fill="#A6A6A6"/>
    <path d="M34.4524 22.3023C34.4192 18.7088 37.4702 16.9606 37.6097 16.8792C35.8818 14.423 33.2037 14.0874 32.2625 14.0606C30.0132 13.8298 27.8313 15.3729 26.6855 15.3729C25.5168 15.3729 23.7523 14.0829 21.8506 14.1208C19.4035 14.1576 17.1141 15.539 15.8585 17.6842C13.2672 22.0582 15.1998 28.4858 17.6824 32.0213C18.9243 33.7528 20.3755 35.6862 22.2749 35.6182C24.1331 35.5435 24.8273 34.4631 27.0697 34.4631C29.2916 34.4631 29.9434 35.6182 31.8806 35.5747C33.8749 35.5435 35.1305 33.8354 36.329 32.0882C37.7641 30.1036 38.3404 28.1491 38.3633 28.0488C38.3164 28.0332 34.4901 26.6094 34.4524 22.3023Z" fill="white"/>
                        <path d="M30.7931 11.7348C31.7925 10.5162 32.4764 8.85827 32.2865 7.17581C30.84 7.23825 29.0309 8.15139 27.9891 9.34327C27.0674 10.3936 26.2441 12.115 26.4568 13.7339C28.0818 13.8521 29.7502 12.9345 30.7931 11.7348Z" fill="white"/>
                        <path d="M61.345 35.3695H58.748L57.3254 31.0112H52.3808L51.0257 35.3695H48.4973L53.3962 20.5318H56.422L61.345 35.3695ZM56.8966 29.1827L55.6101 25.3082C55.474 24.9124 55.219 23.9803 54.8428 22.513H54.7971C54.6473 23.1441 54.406 24.0762 54.0743 25.3082L52.8107 29.1827H56.8966Z" fill="white"/>
                        <path d="M73.9432 29.8885C73.9432 31.7081 73.4389 33.1464 72.4303 34.2022C71.5269 35.1421 70.4051 35.6115 69.066 35.6115C67.6205 35.6115 66.5822 35.1053 65.9498 34.0929H65.9041V39.729H63.4661V28.1926C63.4661 27.0487 63.4352 25.8747 63.3757 24.6705H65.5199L65.6559 26.3663H65.7017C66.5147 25.0886 67.7486 24.4509 69.4045 24.4509C70.6989 24.4509 71.7796 24.9492 72.6441 25.9471C73.5109 26.9461 73.9432 28.2595 73.9432 29.8885ZM71.4594 29.9754C71.4594 28.9341 71.2193 28.0756 70.7367 27.3999C70.2095 26.6953 69.5017 26.3429 68.6143 26.3429C68.0128 26.3429 67.4662 26.5392 66.9779 26.9261C66.4884 27.3163 66.1682 27.8258 66.0184 28.4569C65.943 28.7512 65.9052 28.9921 65.9052 29.1816V30.9655C65.9052 31.7437 66.15 32.4005 66.6394 32.9367C67.1288 33.473 67.7646 33.7406 68.5468 33.7406C69.4651 33.7406 70.1798 33.395 70.6909 32.7059C71.2032 32.0158 71.4594 31.106 71.4594 29.9754Z" fill="white"/>
                        <path d="M86.5646 29.8885C86.5646 31.7081 86.0603 33.1464 85.0505 34.2022C84.1483 35.1421 83.0265 35.6115 81.6874 35.6115C80.242 35.6115 79.2036 35.1053 78.5724 34.0929H78.5267V39.729H76.0886V28.1926C76.0886 27.0487 76.0578 25.8747 75.9983 24.6705H78.1424L78.2785 26.3663H78.3242C79.1362 25.0886 80.37 24.4509 82.027 24.4509C83.3204 24.4509 84.401 24.9492 85.2678 25.9471C86.1312 26.9461 86.5646 28.2595 86.5646 29.8885ZM84.0808 29.9754C84.0808 28.9341 83.8395 28.0756 83.357 27.3999C82.8298 26.6953 82.1242 26.3429 81.2357 26.3429C80.6331 26.3429 80.0876 26.5392 79.5982 26.9261C79.1087 27.3163 78.7897 27.8258 78.6399 28.4569C78.5655 28.7512 78.5267 28.9921 78.5267 29.1816V30.9655C78.5267 31.7437 78.7714 32.4005 79.2585 32.9367C79.7479 33.4719 80.3838 33.7406 81.1682 33.7406C82.0865 33.7406 82.8012 33.395 83.3124 32.7059C83.8247 32.0158 84.0808 31.106 84.0808 29.9754Z" fill="white"/>
                        <path d="M100.676 31.2085C100.676 32.4707 100.226 33.4975 99.324 34.2902C98.3326 35.1566 96.9523 35.5892 95.1787 35.5892C93.5411 35.5892 92.2284 35.2814 91.2346 34.6649L91.7995 32.6836C92.8699 33.3147 94.0443 33.6313 95.3239 33.6313C96.2422 33.6313 96.9569 33.4284 97.4703 33.0248C97.9815 32.6212 98.2365 32.0793 98.2365 31.4036C98.2365 30.8016 98.0261 30.2943 97.6041 29.8829C97.1844 29.4714 96.4835 29.089 95.5046 28.7356C92.8401 27.7667 91.5091 26.3474 91.5091 24.4809C91.5091 23.2612 91.9756 22.2611 92.9099 21.4828C93.8407 20.7035 95.0826 20.3144 96.6355 20.3144C98.0204 20.3144 99.1708 20.5496 100.089 21.019L99.4795 22.9568C98.6219 22.5019 97.6522 22.2744 96.5669 22.2744C95.7093 22.2744 95.0392 22.4807 94.5589 22.891C94.1529 23.2578 93.9494 23.7049 93.9494 24.2345C93.9494 24.821 94.1815 25.306 94.6481 25.6873C95.054 26.0396 95.7916 26.4209 96.862 26.8324C98.1713 27.3463 99.133 27.9473 99.7517 28.6363C100.368 29.3232 100.676 30.1828 100.676 31.2085Z" fill="white"/>
                        <path d="M108.737 26.4544H106.049V31.6489C106.049 32.9701 106.523 33.6302 107.472 33.6302C107.907 33.6302 108.269 33.5934 108.555 33.5198L108.622 35.3249C108.142 35.5 107.51 35.588 106.726 35.588C105.763 35.588 105.011 35.3015 104.468 34.7295C103.927 34.1564 103.655 33.1954 103.655 31.8451V26.4521H102.054V24.6682H103.655V22.7093L106.049 22.0046V24.6682H108.737V26.4544Z" fill="white"/>
                        <path d="M120.861 29.9319C120.861 31.5765 120.379 32.9267 119.416 33.9825C118.406 35.0696 117.066 35.6115 115.395 35.6115C113.785 35.6115 112.503 35.0908 111.547 34.0494C110.591 33.0081 110.113 31.6935 110.113 30.1092C110.113 28.4513 110.605 27.0933 111.592 26.0374C112.576 24.9804 113.905 24.4519 115.576 24.4519C117.186 24.4519 118.482 24.9726 119.459 26.0151C120.395 27.0264 120.861 28.332 120.861 29.9319ZM118.332 30.0088C118.332 29.0221 118.116 28.1759 117.678 27.4701C117.167 26.6161 116.436 26.1901 115.489 26.1901C114.509 26.1901 113.765 26.6172 113.253 27.4701C112.815 28.177 112.599 29.0366 112.599 30.0534C112.599 31.0402 112.815 31.8864 113.253 32.5911C113.781 33.4451 114.517 33.871 115.467 33.871C116.398 33.871 117.129 33.4362 117.656 32.5688C118.105 31.8496 118.332 30.9945 118.332 30.0088Z" fill="white"/>
                        <path d="M128.786 26.761C128.545 26.7176 128.287 26.6953 128.018 26.6953C127.16 26.6953 126.497 27.0108 126.03 27.643C125.624 28.2004 125.421 28.9051 125.421 29.7558V35.3696H122.984L123.007 28.0399C123.007 26.8068 122.976 25.684 122.915 24.6716H125.039L125.128 26.7187H125.195C125.453 26.0151 125.859 25.4487 126.414 25.024C126.957 24.6415 127.544 24.4509 128.176 24.4509C128.402 24.4509 128.605 24.4665 128.786 24.4943V26.761Z" fill="white"/>
                        <path d="M139.69 29.5138C139.69 29.9397 139.661 30.2988 139.601 30.592H132.287C132.315 31.649 132.669 32.4573 133.348 33.0148C133.964 33.5132 134.761 33.7629 135.74 33.7629C136.823 33.7629 137.811 33.5946 138.7 33.2567L139.081 34.9068C138.043 35.3484 136.817 35.568 135.403 35.568C133.701 35.568 132.365 35.0797 131.393 34.1041C130.424 33.1285 129.938 31.8184 129.938 30.175C129.938 28.5617 130.389 27.2182 131.294 26.1467C132.241 25.0028 133.52 24.4308 135.131 24.4308C136.712 24.4308 137.909 25.0028 138.722 26.1467C139.366 27.0554 139.69 28.1792 139.69 29.5138ZM137.365 28.8973C137.381 28.1926 137.222 27.5839 136.892 27.0699C136.47 26.4087 135.821 26.0787 134.949 26.0787C134.152 26.0787 133.503 26.4009 133.008 27.0476C132.602 27.5616 132.361 28.1781 132.287 28.8962H137.365V28.8973Z" fill="white"/>
                        <path d="M56.0904 11.4037C56.0904 12.716 55.6868 13.7039 54.8806 14.3673C54.1339 14.9794 53.0726 15.286 51.6981 15.286C51.0166 15.286 50.4334 15.257 49.9451 15.199V8.02877C50.582 7.92842 51.2681 7.87714 52.0092 7.87714C53.3185 7.87714 54.3054 8.15476 54.9709 8.71C55.7165 9.33772 56.0904 10.2353 56.0904 11.4037ZM54.8268 11.4361C54.8268 10.5853 54.5958 9.9331 54.1339 9.4782C53.6719 9.02442 52.9972 8.79697 52.1086 8.79697C51.7313 8.79697 51.4099 8.8215 51.1435 8.87279V14.3238C51.291 14.3461 51.5609 14.3561 51.9531 14.3561C52.8702 14.3561 53.5781 14.1075 54.0767 13.6102C54.5753 13.1129 54.8268 12.3882 54.8268 11.4361Z" fill="white"/>
                        <path d="M62.7905 12.5499C62.7905 13.3582 62.5537 14.0205 62.0803 14.54C61.584 15.0741 60.9265 15.3406 60.1054 15.3406C59.3141 15.3406 58.684 15.0852 58.214 14.5724C57.7452 14.0606 57.5107 13.4151 57.5107 12.6368C57.5107 11.8229 57.752 11.1551 58.2369 10.6366C58.7217 10.1182 59.3736 9.85837 60.1946 9.85837C60.986 9.85837 61.6218 10.1137 62.1032 10.6255C62.5606 11.1227 62.7905 11.7649 62.7905 12.5499ZM61.5474 12.5878C61.5474 12.1028 61.4399 11.6869 61.2261 11.3401C60.9745 10.9209 60.6166 10.7113 60.1512 10.7113C59.6697 10.7113 59.3038 10.9209 59.0522 11.3401C58.8372 11.6869 58.7309 12.1094 58.7309 12.6089C58.7309 13.0939 58.8384 13.5098 59.0522 13.8566C59.3118 14.2758 59.6732 14.4854 60.1397 14.4854C60.5972 14.4854 60.9562 14.2725 61.2147 13.8454C61.4365 13.492 61.5474 13.0728 61.5474 12.5878Z" fill="white"/>
                        <path d="M71.7742 9.96542L70.0875 15.2213H68.9897L68.291 12.939C68.1138 12.3693 67.9697 11.8029 67.8576 11.2409H67.8359C67.7318 11.8185 67.5877 12.3837 67.4025 12.939L66.6603 15.2213H65.5499L63.9639 9.96542H65.1955L65.805 12.464C65.9525 13.0549 66.0737 13.618 66.1709 14.1509H66.1926C66.2818 13.7117 66.4293 13.1519 66.6375 12.4752L67.4025 9.96654H68.3791L69.1121 12.4217C69.2893 13.0204 69.4334 13.5968 69.5443 14.1521H69.5775C69.6587 13.6113 69.781 13.0349 69.9434 12.4217L70.5975 9.96654H71.7742V9.96542Z" fill="white"/>
                        <path d="M77.987 15.2213H76.7886V12.2109C76.7886 11.2833 76.4273 10.8195 75.7023 10.8195C75.3466 10.8195 75.0596 10.9466 74.8366 11.2019C74.6159 11.4572 74.5038 11.7583 74.5038 12.1028V15.2202H73.3054V11.4673C73.3054 11.0057 73.2906 10.5051 73.262 9.96319H74.3152L74.3712 10.7849H74.4044C74.5439 10.5296 74.752 10.3189 75.0253 10.1505C75.3501 9.95427 75.7137 9.85504 76.1116 9.85504C76.6148 9.85504 77.0333 10.0134 77.3661 10.3311C77.7801 10.7202 77.987 11.3011 77.987 12.0727V15.2213Z" fill="white"/>
                        <path d="M81.2918 15.2213H80.0945V7.55377H81.2918V15.2213Z" fill="white"/>
                        <path d="M88.3473 12.5499C88.3473 13.3582 88.1106 14.0205 87.6372 14.54C87.1409 15.0741 86.4822 15.3406 85.6623 15.3406C84.8698 15.3406 84.2398 15.0852 83.7709 14.5724C83.302 14.0606 83.0676 13.4151 83.0676 12.6368C83.0676 11.8229 83.3089 11.1551 83.7938 10.6366C84.2786 10.1182 84.9305 9.85837 85.7504 9.85837C86.5428 9.85837 87.1775 10.1137 87.6601 10.6255C88.1175 11.1227 88.3473 11.7649 88.3473 12.5499ZM87.1032 12.5878C87.1032 12.1028 86.9957 11.6869 86.7818 11.3401C86.5314 10.9209 86.1723 10.7113 85.7081 10.7113C85.2255 10.7113 84.8595 10.9209 84.6091 11.3401C84.3941 11.6869 84.2878 12.1094 84.2878 12.6089C84.2878 13.0939 84.3953 13.5098 84.6091 13.8566C84.8687 14.2758 85.2301 14.4854 85.6966 14.4854C86.154 14.4854 86.512 14.2725 86.7704 13.8454C86.9934 13.492 87.1032 13.0728 87.1032 12.5878Z" fill="white"/>
                        <path d="M94.1472 15.2213H93.0711L92.9819 14.6159H92.9487C92.5805 15.0986 92.0556 15.3406 91.3741 15.3406C90.8652 15.3406 90.4535 15.1811 90.1436 14.8645C89.8623 14.5768 89.7217 14.2189 89.7217 13.7941C89.7217 13.1519 89.9961 12.6625 90.5485 12.3235C91.0996 11.9846 91.875 11.8184 92.8733 11.8263V11.7281C92.8733 11.0358 92.5005 10.6901 91.7537 10.6901C91.222 10.6901 90.7532 10.8206 90.3483 11.0792L90.1048 10.3122C90.6056 10.01 91.2243 9.85837 91.9539 9.85837C93.3627 9.85837 94.0694 10.5831 94.0694 12.0325V13.9681C94.0694 14.4932 94.0957 14.9113 94.1472 15.2213ZM92.903 13.4151V12.6045C91.5811 12.5822 90.9201 12.9356 90.9201 13.6637C90.9201 13.938 90.9956 14.1431 91.15 14.2803C91.3043 14.4174 91.501 14.4854 91.7354 14.4854C91.9985 14.4854 92.2443 14.404 92.4685 14.2423C92.6937 14.0796 92.8321 13.8733 92.8836 13.6202C92.8961 13.5633 92.903 13.4942 92.903 13.4151Z" fill="white"/>
                        <path d="M100.957 15.2213H99.8937L99.8377 14.3773H99.8045C99.4649 15.0195 98.8862 15.3406 98.0732 15.3406C97.4237 15.3406 96.8828 15.0919 96.4539 14.5947C96.0251 14.0974 95.8113 13.4519 95.8113 12.6591C95.8113 11.8084 96.0434 11.1194 96.51 10.5931C96.9617 10.1025 97.5151 9.85726 98.1738 9.85726C98.8977 9.85726 99.4043 10.0947 99.6924 10.5708H99.7153V7.55377H100.915V13.8053C100.915 14.3171 100.929 14.7887 100.957 15.2213ZM99.7153 13.0048V12.1284C99.7153 11.9768 99.7039 11.8541 99.6821 11.7605C99.6147 11.4795 99.4694 11.2431 99.2487 11.0525C99.0258 10.8618 98.757 10.7659 98.4471 10.7659C98 10.7659 97.6501 10.9388 97.3928 11.2855C97.1378 11.6323 97.0086 12.0749 97.0086 12.6156C97.0086 13.1352 97.1309 13.5567 97.3768 13.8811C97.6364 14.2267 97.9863 14.3996 98.4243 14.3996C98.8176 14.3996 99.1321 14.2557 99.3711 13.967C99.6021 13.7005 99.7153 13.3794 99.7153 13.0048Z" fill="white"/>
                        <path d="M111.207 12.5499C111.207 13.3582 110.97 14.0205 110.497 14.54C110 15.0741 109.344 15.3406 108.522 15.3406C107.732 15.3406 107.101 15.0852 106.63 14.5724C106.161 14.0606 105.927 13.4151 105.927 12.6368C105.927 11.8229 106.168 11.1551 106.653 10.6366C107.138 10.1182 107.79 9.85837 108.612 9.85837C109.402 9.85837 110.039 10.1137 110.519 10.6255C110.977 11.1227 111.207 11.7649 111.207 12.5499ZM109.965 12.5878C109.965 12.1028 109.857 11.6869 109.643 11.3401C109.391 10.9209 109.034 10.7113 108.567 10.7113C108.087 10.7113 107.721 10.9209 107.468 11.3401C107.254 11.6869 107.147 12.1094 107.147 12.6089C107.147 13.0939 107.255 13.5098 107.468 13.8566C107.728 14.2758 108.089 14.4854 108.556 14.4854C109.013 14.4854 109.374 14.2725 109.632 13.8454C109.853 13.492 109.965 13.0728 109.965 12.5878Z" fill="white"/>
                        <path d="M117.65 15.2213H116.453V12.2109C116.453 11.2833 116.092 10.8195 115.365 10.8195C115.01 10.8195 114.723 10.9466 114.501 11.2019C114.279 11.4572 114.168 11.7583 114.168 12.1028V15.2202H112.969V11.4673C112.969 11.0057 112.955 10.5051 112.926 9.96319H113.978L114.034 10.7849H114.068C114.208 10.5296 114.416 10.3189 114.688 10.1505C115.014 9.95427 115.377 9.85504 115.776 9.85504C116.278 9.85504 116.697 10.0134 117.029 10.3311C117.444 10.7202 117.65 11.3011 117.65 12.0727V15.2213Z" fill="white"/>
                        <path d="M125.716 10.8407H124.396V13.3939C124.396 14.0428 124.631 14.3673 125.095 14.3673C125.31 14.3673 125.488 14.3494 125.629 14.3126L125.66 15.199C125.423 15.286 125.112 15.3295 124.729 15.3295C124.256 15.3295 123.887 15.189 123.621 14.908C123.353 14.627 123.221 14.1543 123.221 13.4909V10.8407H122.433V9.96544H123.221V9.00213L124.395 8.65649V9.96433H125.715V10.8407H125.716Z" fill="white"/>
                        <path d="M132.06 15.2213H130.861V12.2332C130.861 11.2911 130.499 10.8195 129.776 10.8195C129.22 10.8195 128.84 11.0926 128.632 11.6389C128.597 11.7538 128.576 11.8943 128.576 12.0593V15.2202H127.379V7.55377H128.576V10.7213H128.599C128.976 10.1449 129.517 9.85726 130.218 9.85726C130.714 9.85726 131.125 10.0156 131.451 10.3333C131.857 10.7291 132.06 11.3178 132.06 12.0961V15.2213Z" fill="white"/>
                        <path d="M138.605 12.3447C138.605 12.5543 138.589 12.7305 138.56 12.8743H134.966C134.982 13.3939 135.153 13.7897 135.486 14.064C135.79 14.3093 136.183 14.4319 136.663 14.4319C137.195 14.4319 137.679 14.3494 138.116 14.1833L138.304 14.995C137.793 15.2113 137.191 15.3194 136.495 15.3194C135.66 15.3194 135.002 15.0797 134.527 14.6003C134.049 14.1208 133.812 13.4775 133.812 12.6703C133.812 11.8776 134.033 11.2175 134.478 10.6913C134.942 10.1293 135.57 9.84836 136.362 9.84836C137.137 9.84836 137.726 10.1293 138.124 10.6913C138.446 11.1372 138.605 11.6891 138.605 12.3447ZM137.461 12.0426C137.47 11.6958 137.391 11.397 137.229 11.145C137.021 10.8206 136.704 10.6578 136.275 10.6578C135.884 10.6578 135.565 10.8161 135.321 11.1339C135.123 11.387 135.005 11.6891 134.966 12.0426H137.461Z" fill="white"/>
</svg>