<svg width="153" height="45" viewBox="0 0 153 45" fill="none" xmlns="http://www.w3.org/2000/svg">
<g clip-path="url(#clip0)">
<path d="M151.246 39.6882C151.246 42.0687 149.317 43.9984 146.935 43.9984C146.933 43.9984 146.931 43.9984 146.93 43.9984H5.70128C3.31748 44.0001 1.38273 42.0704 1.37939 39.6882V5.31682C1.38273 2.93303 3.31581 1.00162 5.70128 1.00162H146.93C149.313 1.00162 151.245 2.93303 151.245 5.31682C151.245 5.31682 151.245 5.31682 151.245 5.31849L151.246 39.6882Z" fill="white"/>
<path d="M146.931 45H5.70141C2.76506 45 0.384607 42.6229 0.37793 39.6882V5.31847C0.382938 2.38213 2.7634 0.00166933 5.70141 0H146.93C149.866 0.00333865 152.246 2.38213 152.253 5.31847V39.6882C152.255 42.6179 149.863 45 146.931 45Z" fill="#A6A5A5"/>
<path d="M151.246 39.6882C151.246 42.0687 149.317 43.9984 146.935 43.9984C146.933 43.9984 146.931 43.9984 146.93 43.9984H5.70128C3.31748 44.0001 1.38273 42.0704 1.37939 39.6882V5.31682C1.38273 2.93303 3.31581 1.00162 5.70128 1.00162H146.93C149.313 1.00162 151.245 2.93303 151.245 5.31682C151.245 5.31682 151.245 5.31682 151.245 5.31849L151.246 39.6882Z" fill="#010101"/>
<path d="M44.9038 14.0741L44.0758 16.5848H43.0107L45.7217 8.60538H46.9654L49.688 16.5848H48.5863L47.7333 14.0741H44.9038ZM47.5213 13.2695L46.74 10.9725C46.5631 10.4517 46.4445 9.97756 46.326 9.51683H46.3026C46.1841 9.99092 46.0539 10.475 45.9003 10.9608L45.1191 13.2695H47.5213Z" fill="white"/>
<path d="M50.9799 10.854L52.1051 14.0741C52.2954 14.5949 52.4489 15.069 52.5675 15.5414H52.6025C52.7327 15.0673 52.898 14.5949 53.0883 14.0741L54.2017 10.854H55.2918L53.0416 16.5848H52.0466L49.8682 10.854H50.9799Z" fill="white"/>
<path d="M59.4 16.5847L59.3165 15.8619H59.2815C58.961 16.3126 58.345 16.715 57.5287 16.715C56.3685 16.715 55.7759 15.8987 55.7759 15.069C55.7759 13.6835 57.0078 12.9256 59.2214 12.9373V12.8187C59.2214 12.3447 59.0912 11.4933 57.9193 11.4933C57.3868 11.4933 56.8292 11.6586 56.4269 11.919L56.1899 11.2312C56.6623 10.9241 57.3501 10.7221 58.0729 10.7221C59.8257 10.7221 60.2513 11.9173 60.2513 13.0658V15.2092C60.2513 15.7067 60.2747 16.1925 60.3465 16.5831H59.4V16.5847ZM59.2464 13.6601C58.1096 13.6367 56.8192 13.837 56.8192 14.9505C56.8192 15.6249 57.2699 15.9454 57.8024 15.9454C58.5486 15.9454 59.021 15.4713 59.188 14.9872C59.223 14.8804 59.2464 14.7618 59.2464 14.655V13.6601Z" fill="white"/>
<path d="M63.096 9.24305C63.1077 9.59861 62.8473 9.8824 62.4333 9.8824C62.0661 9.8824 61.8057 9.59861 61.8057 9.24305C61.8057 8.8758 62.0778 8.59201 62.4567 8.59201C62.8473 8.59201 63.096 8.8758 63.096 9.24305ZM61.9359 16.5847V10.8539H62.9775V16.5847H61.9359Z" fill="white"/>
<path d="M64.707 8.17802H65.7487V16.5847H64.707V8.17802Z" fill="white"/>
<path d="M70.6749 16.5847L70.5914 15.8619H70.5564C70.2359 16.3126 69.6199 16.715 68.8036 16.715C67.6434 16.715 67.0508 15.8987 67.0508 15.069C67.0508 13.6835 68.2827 12.9256 70.4963 12.9373V12.8187C70.4963 12.3447 70.3661 11.4933 69.1942 11.4933C68.6617 11.4933 68.1041 11.6586 67.7018 11.919L67.4648 11.2312C67.9372 10.9241 68.625 10.7221 69.3478 10.7221C71.1006 10.7221 71.5262 11.9173 71.5262 13.0658V15.2092C71.5262 15.7067 71.5496 16.1925 71.6214 16.5831H70.6749V16.5847ZM70.5213 13.6601C69.3845 13.6367 68.0941 13.837 68.0941 14.9505C68.0941 15.6249 68.5448 15.9454 69.0773 15.9454C69.8235 15.9454 70.2959 15.4713 70.4629 14.9872C70.4979 14.8804 70.5213 14.7618 70.5213 14.655V13.6601Z" fill="white"/>
<path d="M73.1636 16.5847C73.1869 16.1941 73.2103 15.6132 73.2103 15.1041V8.17802H74.2403V11.7771H74.2637C74.6309 11.1377 75.2936 10.7237 76.2168 10.7237C77.6374 10.7237 78.644 11.9073 78.6323 13.6484C78.6323 15.6967 77.3419 16.715 76.0632 16.715C75.2352 16.715 74.5708 16.3944 74.1451 15.6366H74.1101L74.0633 16.5831H73.1636V16.5847ZM74.2403 14.2878C74.2403 14.418 74.2637 14.5482 74.287 14.6667C74.489 15.3878 75.0916 15.8853 75.8495 15.8853C76.9396 15.8853 77.5906 14.9972 77.5906 13.6835C77.5906 12.535 76.998 11.5517 75.8862 11.5517C75.1768 11.5517 74.5124 12.0375 74.3004 12.8304C74.277 12.949 74.2403 13.0908 74.2403 13.2561V14.2878Z" fill="white"/>
<path d="M79.9492 8.17802H80.9909V16.5847H79.9492V8.17802Z" fill="white"/>
<path d="M83.3245 13.9088C83.3479 15.3177 84.2476 15.8987 85.2893 15.8987C86.0355 15.8987 86.4845 15.7685 86.8768 15.6032L87.0538 16.3494C86.6865 16.5147 86.0589 16.705 85.1474 16.705C83.3829 16.705 82.3296 15.5448 82.3296 13.8154C82.3296 12.0876 83.3479 10.7254 85.0172 10.7254C86.8868 10.7254 87.3843 12.3714 87.3843 13.4247C87.3843 13.6384 87.3609 13.8037 87.3493 13.9105H83.3245V13.9088ZM86.3794 13.1626C86.3911 12.4999 86.1073 11.47 84.9354 11.47C83.8821 11.47 83.4197 12.4398 83.3362 13.1626H86.3794Z" fill="white"/>
<path d="M96.374 13.6718C96.374 15.7918 94.905 16.715 93.5211 16.715C91.9703 16.715 90.7734 15.5782 90.7734 13.7669C90.7734 11.8489 92.0288 10.7238 93.6146 10.7238C95.2623 10.7238 96.374 11.919 96.374 13.6718ZM91.8285 13.7302C91.8285 14.9855 92.5496 15.9321 93.5696 15.9321C94.5645 15.9321 95.3107 14.9956 95.3107 13.7052C95.3107 12.7353 94.8249 11.5033 93.5929 11.5033C92.361 11.505 91.8285 12.6418 91.8285 13.7302Z" fill="white"/>
<path d="M97.6913 12.4048C97.6913 11.8121 97.6796 11.328 97.6445 10.854H98.5677L98.6261 11.8005H98.6495C98.9333 11.2563 99.596 10.7221 100.544 10.7221C101.337 10.7221 102.569 11.1962 102.569 13.161V16.5831H101.527V13.2812C101.527 12.358 101.184 11.5885 100.202 11.5885C99.5158 11.5885 98.9833 12.0742 98.8047 12.6535C98.758 12.7837 98.7346 12.9606 98.7346 13.1393V16.5847H97.6929V12.4048H97.6913Z" fill="white"/>
<path d="M66.4852 25.8462C65.3484 25.8462 64.4803 26.3687 63.8777 27.412H63.846V26.0398H62.0164V34.303H63.846V29.5905C63.846 28.9394 64.0262 28.4003 64.3885 27.9729C64.7507 27.5456 65.1981 27.1983 65.7523 27.1983C66.8157 27.1983 67.647 27.6357 67.6153 29.6472V34.303H69.1794V29.2516C69.1794 28.1499 68.9491 27.3052 68.4883 26.7226C68.0276 26.1383 67.3599 25.8462 66.4852 25.8462ZM83.9647 25.8462C82.6192 25.8462 81.5508 26.2368 80.7579 27.0164C79.965 27.796 79.5677 28.8793 79.5677 30.2682C79.5677 31.5436 79.9483 32.5669 80.7095 33.3381C81.4707 34.1093 82.489 34.4966 83.7643 34.4966C85.0764 34.4966 86.1214 34.0993 86.8993 33.3064C87.6772 32.5135 88.0662 31.4568 88.0662 30.1397C88.0662 28.7942 87.7056 27.7425 86.9845 26.9847C86.2633 26.2268 85.2567 25.8462 83.9647 25.8462ZM85.5505 32.2781C85.1549 32.7672 84.589 33.0126 83.8528 33.0126C83.1317 33.0126 82.5558 32.7639 82.1267 32.2664C81.696 31.7689 81.4807 31.0879 81.4807 30.2215C81.4807 29.3234 81.6927 28.6189 82.1184 28.1081C82.5424 27.5973 83.1217 27.3419 83.8528 27.3419C84.589 27.3419 85.1566 27.589 85.5505 28.0847C85.9462 28.5805 86.1431 29.2817 86.1431 30.1914C86.1448 31.0912 85.9462 31.7873 85.5505 32.2781ZM76.648 26.8628H76.6163C76.1105 25.9697 75.3025 25.8462 74.1874 25.8462C73.064 25.8462 72.1642 26.2568 71.4881 27.0815C70.8137 27.9045 70.4748 28.9995 70.4748 30.365C70.4748 31.6404 70.7803 32.647 71.3913 33.3865C72.0023 34.126 72.8152 34.4966 73.8319 34.4966C75.0855 34.4966 76.0137 34.1728 76.6146 33.1077H76.6463V34.303H78.5177V22.0718H76.6463V26.8628H76.648ZM76.6714 30.5403C76.6714 31.2832 76.4644 31.8975 76.0521 32.3866C75.6381 32.8757 75.1005 33.1194 74.4345 33.1194C73.7584 33.1194 73.2209 32.8674 72.8219 32.3616C72.4229 31.8558 72.2226 31.168 72.2226 30.2966C72.2226 29.3367 72.4313 28.5855 72.847 28.043C73.2626 27.5022 73.8335 27.2301 74.5597 27.2301C75.174 27.2301 75.6798 27.4421 76.0754 27.8661C76.4727 28.2901 76.6697 28.8076 76.6697 29.4152V30.5403H76.6714ZM96.9153 32.0193C96.8468 32.2931 96.8068 32.5302 96.7951 32.7288H96.7383C96.7166 32.4434 96.6833 32.208 96.6348 32.0193L95.1608 26.0398H93.4147L91.7571 31.9776C91.687 32.2364 91.6452 32.4784 91.6285 32.7038H91.5734C91.5568 32.4083 91.525 32.1713 91.4766 31.9943L89.9876 26.0398H88.0645L90.475 34.303H92.3814L93.999 28.6874C94.0841 28.3969 94.1325 28.1599 94.1425 27.9779H94.1743C94.1909 28.2467 94.2277 28.4887 94.2861 28.7041L95.7768 34.303H97.7232L100.142 26.0398H98.3709L96.9153 32.0193ZM58.5258 34.303H60.3971V26.0398H58.5258V34.303ZM53.9418 31.2364C53.8367 31.6771 53.7749 32.0327 53.7599 32.3015H53.7282C53.6914 31.9042 53.6364 31.5603 53.5612 31.2682L51.3995 22.7312H49.453L47.116 31.203C46.9891 31.6705 46.914 32.0427 46.894 32.3165H46.8539C46.8322 31.9292 46.7804 31.5586 46.6953 31.203L44.6287 22.7312H42.5537L45.7421 34.3013H47.9273L50.1041 26.1917C50.2042 25.8278 50.2693 25.4556 50.2944 25.0783H50.3261C50.3461 25.4873 50.4029 25.8629 50.493 26.2084L52.6631 34.3013H54.7999L57.9232 22.7312H55.9684L53.9418 31.2364ZM105.187 30.4652C105.003 30.2749 104.781 30.103 104.521 29.9527C104.235 29.7891 103.941 29.6406 103.639 29.5087C103.391 29.4169 103.172 29.3317 102.982 29.2549C102.791 29.1765 102.628 29.0914 102.491 28.9962C102.356 28.9027 102.252 28.7942 102.182 28.669C102.112 28.5455 102.079 28.3952 102.079 28.2166C102.077 28.0764 102.114 27.9395 102.182 27.8177C102.254 27.6941 102.354 27.5873 102.472 27.5072C102.596 27.4204 102.746 27.3536 102.922 27.3052C103.097 27.2568 103.294 27.2317 103.512 27.2317C104.207 27.2317 104.821 27.4304 105.355 27.8293V26.1917C104.8 25.9597 104.17 25.8445 103.467 25.8445C103.072 25.8445 102.686 25.8963 102.316 26.0014C101.945 26.1066 101.613 26.2618 101.319 26.4688C101.032 26.6692 100.793 26.9312 100.62 27.2351C100.446 27.5389 100.359 27.8894 100.359 28.2884C100.359 28.6106 100.401 28.8944 100.486 29.1348C100.568 29.3735 100.695 29.5938 100.862 29.7841C101.027 29.9761 101.236 30.1464 101.486 30.2966C101.758 30.4585 102.038 30.6004 102.329 30.724C102.558 30.8158 102.786 30.9076 103.017 30.9977C103.222 31.0778 103.401 31.1697 103.551 31.2715C103.703 31.3733 103.823 31.4902 103.911 31.622C104 31.7539 104.045 31.9142 104.045 32.1028C104.045 32.7705 103.526 33.1027 102.484 33.1027C101.706 33.1027 100.993 32.8373 100.351 32.3048V34.0392C100.96 34.3414 101.681 34.4916 102.514 34.4916C102.945 34.4916 103.356 34.4415 103.745 34.3414C104.133 34.2412 104.477 34.0893 104.774 33.8857C105.068 33.6853 105.312 33.4199 105.487 33.1111C105.666 32.7989 105.754 32.4333 105.754 32.0143C105.754 31.6705 105.704 31.3733 105.606 31.1229C105.512 30.8775 105.37 30.6572 105.187 30.4652ZM59.5157 22.2905C58.8931 22.2905 58.3889 22.7546 58.3889 23.3272C58.3889 23.8998 58.8931 24.3638 59.5157 24.3638C60.1384 24.3638 60.6425 23.8998 60.6425 23.3272C60.6425 22.7546 60.1384 22.2905 59.5157 22.2905ZM135.632 25.9597C135.156 25.9597 134.694 26.1149 134.313 26.3987C133.898 26.7242 133.595 27.1599 133.402 27.6991H133.352L133.285 26.1283H131.696C131.732 26.9897 131.751 27.851 131.749 28.7124V34.3347H133.574V30.0278C133.574 29.3751 133.726 28.8343 134.029 28.4069C134.378 27.9212 134.874 27.6791 135.517 27.6791C135.709 27.6791 135.902 27.6958 136.091 27.7292L136.089 25.9897C135.952 25.9714 135.801 25.9597 135.632 25.9597ZM120.146 24.0817L118.354 24.6226V26.125H117.156V27.4938H118.354V31.6304C118.354 32.667 118.558 33.4032 118.962 33.8422C119.368 34.2813 119.932 34.5016 120.651 34.5016C121.237 34.5016 121.71 34.4349 122.07 34.2996L122.02 32.9141C121.807 32.9709 121.536 32.9992 121.211 32.9992C120.501 32.9992 120.146 32.4934 120.146 31.4802V27.4955H122.155V26.1233H120.146V24.0817ZM126.806 25.9614C125.556 25.9614 124.563 26.367 123.823 27.1783C123.087 27.9879 122.716 29.0296 122.716 30.3016C122.716 31.5169 123.074 32.5252 123.79 33.3248C124.504 34.1227 125.464 34.5217 126.671 34.5217C127.921 34.5217 128.923 34.106 129.677 33.2713C130.399 32.4617 130.759 31.4251 130.759 30.1647C130.759 28.9361 130.41 27.9362 129.711 27.1616C128.978 26.362 128.01 25.9614 126.806 25.9614ZM128.364 32.1612C127.968 32.8223 127.422 33.1545 126.724 33.1545C126.012 33.1545 125.462 32.829 125.067 32.1763C124.74 31.6387 124.578 30.991 124.578 30.2382C124.578 29.4636 124.74 28.8076 125.067 28.2684C125.449 27.6173 126.008 27.2901 126.739 27.2901C127.449 27.2901 127.996 27.6157 128.379 28.2684C128.704 28.8076 128.868 29.4536 128.868 30.2048C128.868 30.9593 128.699 31.6087 128.364 32.1612ZM143.797 29.8442C143.797 28.8209 143.555 27.9579 143.072 27.2634C142.465 26.3854 141.568 25.9463 140.385 25.9463C139.179 25.9463 138.223 26.3854 137.515 27.2634C136.839 28.0847 136.5 29.1164 136.5 30.3534C136.5 31.6137 136.864 32.6186 137.588 33.3682C138.316 34.116 139.314 34.4899 140.588 34.4899C141.647 34.4899 142.563 34.3213 143.341 33.9825L143.055 32.7171C142.391 32.9759 141.652 33.1044 140.842 33.1044C140.109 33.1044 139.513 32.9124 139.052 32.5318C138.545 32.1045 138.28 31.4835 138.258 30.6722H143.73C143.78 30.3984 143.802 30.1213 143.797 29.8442ZM138.259 29.3685C138.315 28.8192 138.495 28.3452 138.799 27.9512C139.168 27.4554 139.653 27.2084 140.251 27.2084C140.902 27.2084 141.388 27.4621 141.703 27.9696C141.95 28.3635 142.071 28.8293 142.057 29.3718L138.259 29.3685ZM114.153 27.7859C113.353 27.4704 112.801 27.1783 112.498 26.9079C112.15 26.6157 111.974 26.2418 111.974 25.7928C111.974 25.3854 112.128 25.0432 112.432 24.7611C112.792 24.4456 113.298 24.2887 113.941 24.2887C114.755 24.2887 115.483 24.464 116.128 24.8129L116.585 23.3272C115.899 22.9666 115.036 22.7863 114.001 22.7863C112.841 22.7863 111.908 23.0851 111.205 23.6811C110.502 24.2787 110.15 25.0432 110.15 25.9781C110.15 27.4087 111.148 28.4954 113.141 29.2383C113.874 29.507 114.396 29.8008 114.712 30.1163C115.026 30.4318 115.186 30.8191 115.186 31.2815C115.186 31.7973 114.992 32.2113 114.61 32.5218C114.228 32.8306 113.694 32.9859 113.006 32.9859C112.049 32.9859 111.171 32.7505 110.37 32.2764L109.948 33.7955C110.689 34.2679 111.67 34.505 112.896 34.505C114.221 34.505 115.256 34.1728 115.997 33.5084C116.67 32.9008 117.009 32.1128 117.009 31.143C117.009 30.3567 116.779 29.6973 116.313 29.1681C115.852 28.6406 115.133 28.1799 114.153 27.7859Z" fill="white"/>
<path d="M24.6235 10.8858C23.4282 11.3077 22.561 11.6593 22.561 13.917V15.0107L23.272 14.8857V13.9482C23.2407 12.4014 23.6547 12.0811 24.686 11.628C24.6938 11.339 24.6938 11.0812 24.6235 10.8858Z" fill="white"/>
<path d="M26.6851 10.4016C26.7163 10.6282 26.7788 10.8547 26.7788 11.1125C28.6459 10.8547 28.6147 11.6281 28.6147 13.2062V13.7843L29.3256 13.6593V13.2062C29.3256 10.7297 28.9428 10.0501 26.6851 10.4016Z" fill="white"/>
<path d="M19.3808 15.6515V12.3625C19.3496 10.3313 20.4121 9.72197 22.3417 9.26886C25.24 8.5892 25.4353 10.4641 25.4353 11.6516V14.4249L26.1462 14.3V11.7219C26.1462 9.46417 25.4353 7.76111 22.1854 8.50327C20.4433 8.88607 18.6777 9.33918 18.6777 12.3V15.7765L19.3808 15.6515Z" fill="white"/>
<path d="M32.9041 13.8155L13.3188 17.745V31.9789L32.9041 35.9085L36.8025 34.4945V15.2685L32.9041 13.8155ZM21.8889 29.0181L17.5375 28.4087V24.7995H21.8889V29.0181ZM21.8889 24.2526H17.5375V20.9324L21.8889 20.3231V24.2526ZM27.9121 29.854L22.4357 29.0493V24.7995H27.9121V29.854ZM27.9121 24.2526H22.4357V20.2918L27.9121 19.4871V24.2526Z" fill="white"/>
</g>
<defs>
<clipPath id="clip0">
<rect width="151.875" height="45" fill="white" transform="translate(0.37793)"/>
</clipPath>
</defs>
</svg>
