<svg viewBox="0 0 46 47" fill="none" xmlns="http://www.w3.org/2000/svg">
    <g clip-path="url(#clip0)">
        <path d="M44.6741 28.7837H40.4571C40.0132 28.7837 39.6433 28.4138 39.6433 27.9699V18.4261C39.6433 17.9822 40.0132 17.6123 40.4571 17.6123H44.6741C45.118 17.6123 45.4879 17.9822 45.4879 18.4261V27.9699C45.4879 28.4138 45.118 28.7837 44.6741 28.7837Z" fill="#CF5EA4"/>
        <path d="M11.1601 45.2078L7.23902 43.6541C6.86911 43.5062 6.64716 43.0623 6.79513 42.6184L8.34876 38.6973C8.49672 38.3274 8.94062 38.1055 9.38451 38.2534L13.3056 39.8071C13.6755 39.955 13.8974 40.3989 13.7495 40.8428L12.1958 44.7639C12.0479 45.1338 11.604 45.3557 11.1601 45.2078Z" fill="#CF5EA4"/>
        <path d="M40.3092 23.087C40.3092 34.1844 31.3573 43.1362 20.26 43.1362C9.16258 43.1362 0.136719 34.1844 0.136719 23.087C0.136719 11.9896 9.0886 3.03775 20.186 3.03775C31.2833 3.03775 40.3092 12.0636 40.3092 23.087ZM20.186 8.95635C12.3438 8.95635 6.05532 15.3188 6.05532 23.087C6.05532 30.8552 12.4178 37.2916 20.26 37.2916C28.1021 37.2916 34.3906 30.9291 34.3906 23.087C34.3906 15.2449 28.0281 8.95635 20.186 8.95635Z" fill="#CF5EA4"/>
        <path d="M32.911 7.55073C32.911 8.21658 32.2452 8.58649 31.6533 8.29056L29.6558 7.18082L27.6583 6.07109C27.0664 5.77516 27.0664 4.96135 27.6583 4.59144L29.6558 3.40772L31.6533 2.224C32.2452 1.92807 32.911 2.29798 32.911 2.96382L32.985 5.25728L32.911 7.55073Z" fill="#CF5EA4"/>
        <path d="M31.7272 38.1794L27.8062 39.807C27.4362 39.955 27.2143 40.3989 27.3623 40.8428L28.9159 44.7638C29.0639 45.1338 29.5078 45.3557 29.9517 45.2077L33.8727 43.6541C34.2426 43.5061 34.4646 43.0623 34.3166 42.6184L32.763 38.6973C32.541 38.2534 32.0971 38.0314 31.7272 38.1794Z" fill="#CF5EA4"/>
    </g>
    <defs>
        <clipPath id="clip0">
            <rect width="45.625" height="45.625" fill="white" transform="translate(-0.00012207 0.875)"/>
        </clipPath>
    </defs>
</svg>     