<svg width="156" height="45" viewBox="0 0 156 45" fill="none" xmlns="http://www.w3.org/2000/svg">
                        <path d="M149.343 44.8421H6.59777C3.45879 44.8421 0.887939 42.3321 0.887939 39.2674V5.81892C0.887939 2.7542 3.45879 0.244173 6.59777 0.244173H149.343C152.482 0.244173 155.053 2.7542 155.053 5.81892V39.2674C155.053 42.3321 152.482 44.8421 149.343 44.8421Z" fill="black"/>
                        <path d="M149.343 1.13752C151.987 1.13752 154.138 3.23781 154.138 5.81892V39.2674C154.138 41.8485 151.987 43.9488 149.343 43.9488H6.59777C3.95412 43.9488 1.80294 41.8485 1.80294 39.2674V5.81892C1.80294 3.23781 3.95412 1.13752 6.59777 1.13752H149.343ZM149.343 0.244173H6.59777C3.45879 0.244173 0.887939 2.7542 0.887939 5.81892V39.2674C0.887939 42.3321 3.45879 44.8421 6.59777 44.8421H149.343C152.482 44.8421 155.053 42.3321 155.053 39.2674V5.81892C155.053 2.7542 152.482 0.244173 149.343 0.244173Z" fill="#A6A6A6"/>
                        <path d="M55.0371 11.6654C55.0371 12.5964 54.7516 13.342 54.1892 13.8981C53.5426 14.5573 52.7004 14.889 51.6683 14.889C50.6819 14.889 49.8397 14.5518 49.1488 13.887C48.4565 13.2124 48.1111 12.3846 48.1111 11.3937C48.1111 10.4028 48.4565 9.57491 49.1488 8.90594C49.8397 8.23557 50.6819 7.8983 51.6683 7.8983C52.1594 7.8983 52.6276 7.99725 53.0743 8.18122C53.5197 8.36658 53.8823 8.61744 54.1449 8.92684L53.5483 9.51498C53.0901 8.98677 52.4663 8.72615 51.6683 8.72615C50.9489 8.72615 50.3251 8.97144 49.7955 9.4662C49.2716 9.96235 49.009 10.6048 49.009 11.3937C49.009 12.1825 49.2716 12.8306 49.7955 13.3267C50.3251 13.8159 50.9489 14.0668 51.6683 14.0668C52.432 14.0668 53.0744 13.8159 53.5811 13.3211C53.9151 12.9936 54.105 12.5421 54.1549 11.9651H51.6683V11.1595H54.9857C55.0257 11.3337 55.0371 11.5024 55.0371 11.6654Z" fill="white" stroke="white" stroke-width="0.137225" stroke-miterlimit="10"/>
                        <path d="M60.2998 8.87249H57.1837V10.9909H59.9929V11.7964H57.1837V13.9148H60.2998V14.7357H56.3015V8.05161H60.2998V8.87249Z" fill="white" stroke="white" stroke-width="0.137225" stroke-miterlimit="10"/>
                        <path d="M64.0142 14.7357H63.1321V8.87249H61.2207V8.05161H65.927V8.87249H64.0142V14.7357Z" fill="white" stroke="white" stroke-width="0.137225" stroke-miterlimit="10"/>
                        <path d="M69.333 14.7357V8.05161H70.2138V14.7357H69.333Z" fill="white" stroke="white" stroke-width="0.137225" stroke-miterlimit="10"/>
                        <path d="M74.1177 14.7357H73.2427V8.87249H71.3242V8.05161H76.0362V8.87249H74.1177V14.7357Z" fill="white" stroke="white" stroke-width="0.137225" stroke-miterlimit="10"/>
                        <path d="M84.9467 13.8758C84.2715 14.5518 83.435 14.889 82.4372 14.889C81.4337 14.889 80.5972 14.5518 79.9221 13.8758C79.2483 13.2013 78.9128 12.3734 78.9128 11.3937C78.9128 10.4139 79.2483 9.58605 79.9221 8.91151C80.5972 8.23557 81.4337 7.8983 82.4372 7.8983C83.4293 7.8983 84.2658 8.23557 84.941 8.91708C85.6205 9.5972 85.9559 10.4195 85.9559 11.3937C85.9559 12.3734 85.6205 13.2013 84.9467 13.8758ZM80.5744 13.3156C81.0826 13.8159 81.7007 14.0668 82.4372 14.0668C83.1681 14.0668 83.7919 13.8159 84.2944 13.3156C84.8011 12.8152 85.058 12.1727 85.058 11.3937C85.058 10.6146 84.8011 9.97211 84.2944 9.47177C83.7919 8.97144 83.1681 8.72058 82.4372 8.72058C81.7007 8.72058 81.0826 8.97144 80.5744 9.47177C80.0677 9.97211 79.8107 10.6146 79.8107 11.3937C79.8107 12.1727 80.0677 12.8152 80.5744 13.3156Z" fill="white" stroke="white" stroke-width="0.137225" stroke-miterlimit="10"/>
                        <path d="M87.1934 14.7357V8.05161H88.264L91.5928 13.2501H91.6313L91.5928 11.9651V8.05161H92.4735V14.7357H91.5542L88.0684 9.28084H88.0298L88.0684 10.5714V14.7357H87.1934Z" fill="white" stroke="white" stroke-width="0.137225" stroke-miterlimit="10"/>
                        <path d="M78.6957 24.4972C76.0135 24.4972 73.8224 26.4901 73.8224 29.2399C73.8224 31.9673 76.0135 33.9812 78.6957 33.9812C81.3836 33.9812 83.5748 31.9673 83.5748 29.2399C83.5748 26.4901 81.3836 24.4972 78.6957 24.4972ZM78.6957 32.1136C77.224 32.1136 75.9578 30.9276 75.9578 29.2399C75.9578 27.5298 77.224 26.3647 78.6957 26.3647C80.1674 26.3647 81.4393 27.5298 81.4393 29.2399C81.4393 30.9276 80.1674 32.1136 78.6957 32.1136ZM68.0626 24.4972C65.3747 24.4972 63.1892 26.4901 63.1892 29.2399C63.1892 31.9673 65.3747 33.9812 68.0626 33.9812C70.749 33.9812 72.9359 31.9673 72.9359 29.2399C72.9359 26.4901 70.749 24.4972 68.0626 24.4972ZM68.0626 32.1136C66.5894 32.1136 65.319 30.9276 65.319 29.2399C65.319 27.5298 66.5894 26.3647 68.0626 26.3647C69.5343 26.3647 70.8004 27.5298 70.8004 29.2399C70.8004 30.9276 69.5343 32.1136 68.0626 32.1136ZM55.4096 25.9508V27.966H60.3386C60.1944 29.0921 59.809 29.92 59.2181 30.497C58.4986 31.1938 57.3781 31.9673 55.4096 31.9673C52.3763 31.9673 50.001 29.5771 50.001 26.6156C50.001 23.654 52.3763 21.2638 55.4096 21.2638C57.0497 21.2638 58.2431 21.8896 59.1238 22.7007L60.5784 21.2805C59.3465 20.1321 57.7078 19.2499 55.4096 19.2499C51.25 19.2499 47.7542 22.5544 47.7542 26.6156C47.7542 30.6768 51.25 33.9812 55.4096 33.9812C57.6578 33.9812 59.3465 33.262 60.6741 31.913C62.0344 30.5848 62.4584 28.7172 62.4584 27.2093C62.4584 26.741 62.4184 26.3103 62.347 25.9508H55.4096ZM107.149 27.5131C106.748 26.4525 105.51 24.4972 102.99 24.4972C100.492 24.4972 98.4117 26.419 98.4117 29.2399C98.4117 31.8962 100.47 33.9812 103.229 33.9812C105.461 33.9812 106.748 32.653 107.278 31.8795L105.622 30.8022C105.069 31.591 104.317 32.1136 103.229 32.1136C102.149 32.1136 101.374 31.63 100.877 30.6768L107.373 28.0524L107.149 27.5131ZM100.526 29.0921C100.47 27.2636 101.98 26.3271 103.062 26.3271C103.91 26.3271 104.63 26.741 104.87 27.3333L100.526 29.0921ZM95.2456 33.6927H97.3811V19.7558H95.2456V33.6927ZM91.7484 25.5536H91.677C91.1974 24.9989 90.2824 24.4972 89.1233 24.4972C86.6909 24.4972 84.4669 26.5821 84.4669 29.2552C84.4669 31.913 86.6909 33.9812 89.1233 33.9812C90.2824 33.9812 91.1974 33.4753 91.677 32.9039H91.7484V33.584C91.7484 35.3972 90.7563 36.3714 89.1561 36.3714C87.8514 36.3714 87.042 35.4515 86.708 34.678L84.8509 35.4348C85.3862 36.6919 86.8037 38.2389 89.1561 38.2389C91.6599 38.2389 93.7725 36.8006 93.7725 33.3011V24.7856H91.7484V25.5536ZM89.306 32.1136C87.8343 32.1136 86.6024 30.9109 86.6024 29.2552C86.6024 27.5842 87.8343 26.3647 89.306 26.3647C90.7563 26.3647 91.8997 27.5842 91.8997 29.2552C91.8997 30.9109 90.7563 32.1136 89.306 32.1136ZM117.147 19.7558H112.04V33.6927H114.169V28.412H117.147C119.512 28.412 121.832 26.741 121.832 24.0832C121.832 21.4269 119.507 19.7558 117.147 19.7558ZM117.203 26.4734H114.169V21.6944H117.203C118.793 21.6944 119.701 22.9836 119.701 24.0832C119.701 25.1619 118.793 26.4734 117.203 26.4734ZM130.368 24.4707C128.829 24.4707 127.229 25.1341 126.571 26.6044L128.461 27.3779C128.868 26.6044 129.616 26.3535 130.407 26.3535C131.512 26.3535 132.632 27.0016 132.649 28.1458V28.2922C132.264 28.0747 131.439 27.7528 130.424 27.7528C128.388 27.7528 126.314 28.8468 126.314 30.8886C126.314 32.7561 127.981 33.9589 129.856 33.9589C131.289 33.9589 132.08 33.3275 132.576 32.5931H132.649V33.6704H134.706V28.3242C134.706 25.8532 132.816 24.4707 130.368 24.4707ZM130.111 32.1081C129.415 32.1081 128.444 31.7708 128.444 30.9276C128.444 29.8489 129.654 29.435 130.702 29.435C131.64 29.435 132.08 29.6371 132.649 29.9033C132.482 31.1938 131.345 32.1081 130.111 32.1081ZM142.2 24.7759L139.752 30.8175H139.68L137.149 24.7759H134.852L138.655 33.2188L136.485 37.917H138.71L144.57 24.7759H142.2ZM123.003 33.6927H125.138V19.7558H123.003V33.6927Z" fill="white"/>
                        <path d="M12.8042 8.64948C12.4688 8.99233 12.2747 9.52611 12.2747 10.2174V34.8745C12.2747 35.5658 12.4688 36.0995 12.8042 36.4424L12.887 36.5176L27.0388 22.7062V22.3801L12.887 8.56865L12.8042 8.64948Z" fill="url(#paint0_linear)"/>
                        <path d="M31.7511 27.3123L27.0391 22.7062V22.3801L31.7568 17.7739L31.8624 17.8339L37.4495 20.9376C39.044 21.8184 39.044 23.2678 37.4495 24.1542L31.8624 27.2524L31.7511 27.3123Z" fill="url(#paint1_linear)"/>
                        <path d="M31.8624 27.2524L27.039 22.5432L12.8044 36.4424C13.334 36.9859 14.1976 37.0515 15.1797 36.5079L31.8624 27.2524Z" fill="url(#paint2_linear)"/>
                        <path d="M31.8624 17.8339L15.1797 8.57843C14.1976 8.04047 13.334 8.10597 12.8044 8.64951L27.039 22.5432L31.8624 17.8339Z" fill="url(#paint3_linear)"/>
                        <defs>
                        <linearGradient id="paint0_linear" x1="25.7823" y1="35.1313" x2="7.07617" y2="15.9718" gradientUnits="userSpaceOnUse">
                        <stop stop-color="#00A0FF"/>
                        <stop offset="0.0066" stop-color="#00A1FF"/>
                        <stop offset="0.2601" stop-color="#00BEFF"/>
                        <stop offset="0.5122" stop-color="#00D2FF"/>
                        <stop offset="0.7604" stop-color="#00DFFF"/>
                        <stop offset="1" stop-color="#00E3FF"/>
                        </linearGradient>
                        <linearGradient id="paint1_linear" x1="39.5258" y1="22.5416" x2="11.8937" y2="22.5416" gradientUnits="userSpaceOnUse">
                        <stop stop-color="#FFE000"/>
                        <stop offset="0.4087" stop-color="#FFBD00"/>
                        <stop offset="0.7754" stop-color="#FFA500"/>
                        <stop offset="1" stop-color="#FF9C00"/>
                        </linearGradient>
                        <linearGradient id="paint2_linear" x1="29.2396" y1="19.9831" x2="3.87254" y2="-5.9986" gradientUnits="userSpaceOnUse">
                        <stop stop-color="#FF3A44"/>
                        <stop offset="1" stop-color="#C31162"/>
                        </linearGradient>
                        <linearGradient id="paint3_linear" x1="9.2213" y1="44.6457" x2="20.5488" y2="33.0438" gradientUnits="userSpaceOnUse">
                        <stop stop-color="#32A071"/>
                        <stop offset="0.0685" stop-color="#2DA771"/>
                        <stop offset="0.4762" stop-color="#15CF74"/>
                        <stop offset="0.8009" stop-color="#06E775"/>
                        <stop offset="1" stop-color="#00F076"/>
                        </linearGradient>
                        </defs>
                    </svg>     