<svg width="46" height="45" viewBox="0 0 46 45" fill="none" xmlns="http://www.w3.org/2000/svg">
            <path d="M44.8619 27.5572H40.6449C40.201 27.5572 39.8311 27.1873 39.8311 26.7434V17.1997C39.8311 16.7558 40.201 16.3859 40.6449 16.3859H44.8619C45.3058 16.3859 45.6757 16.7558 45.6757 17.1997V26.7434C45.6757 27.1873 45.3058 27.5572 44.8619 27.5572Z" fill="#A0A3BD"/>
            <path d="M11.3478 43.9813L7.42677 42.4277C7.05685 42.2797 6.83491 41.8358 6.98287 41.3919L8.5365 37.4708C8.68447 37.1009 9.12836 36.879 9.57226 37.0269L13.4933 38.5806C13.8632 38.7285 14.0852 39.1724 13.9372 39.6163L12.3836 43.5374C12.2356 43.9073 11.7917 44.1293 11.3478 43.9813Z" fill="#A0A3BD"/>
            <path d="M40.4969 21.8605C40.4969 32.9579 31.5451 41.9098 20.4477 41.9098C9.35032 41.9098 0.324463 32.9579 0.324463 21.8605C0.324463 10.7632 9.27634 1.81128 20.3737 1.81128C31.4711 1.81128 40.4969 10.8371 40.4969 21.8605ZM20.3737 7.72988C12.5316 7.72988 6.24306 14.0924 6.24306 21.8605C6.24306 29.6287 12.6056 36.0652 20.4477 36.0652C28.2898 36.0652 34.5783 29.7027 34.5783 21.8605C34.5783 14.0184 28.2159 7.72988 20.3737 7.72988Z" fill="#A0A3BD"/>
            <path d="M33.0987 6.32428C33.0987 6.99012 32.4329 7.36003 31.841 7.0641L29.8435 5.95437L27.846 4.84463C27.2541 4.5487 27.2541 3.73489 27.846 3.36498L29.8435 2.18126L31.841 0.997542C32.4329 0.701612 33.0987 1.07152 33.0987 1.73737L33.1727 4.03082L33.0987 6.32428Z" fill="#A0A3BD"/>
            <path d="M31.915 36.9529L27.9939 38.5806C27.624 38.7285 27.402 39.1724 27.55 39.6163L29.1036 43.5374C29.2516 43.9073 29.6955 44.1292 30.1394 43.9813L34.0605 42.4276C34.4304 42.2797 34.6523 41.8358 34.5044 41.3919L32.9507 37.4708C32.7288 37.0269 32.2849 36.805 31.915 36.9529Z" fill="#A0A3BD"/>
        </svg>