<svg width="28" height="28" viewBox="0 0 28 28" fill="none" xmlns="http://www.w3.org/2000/svg">
                <path fill-rule="evenodd" clip-rule="evenodd" d="M0.742676 14.0949C0.742676 21.4162 6.67783 27.3514 13.9992 27.3514C21.3206 27.3514 27.2558 21.4162 27.2558 14.0949C27.2558 6.77347 21.3206 0.838318 13.9992 0.838318C6.67783 0.838318 0.742676 6.77347 0.742676 14.0949ZM11.5689 20.1708L11.7944 16.7916L11.7942 16.7915L17.9413 11.2441C18.2111 11.0047 17.8824 10.888 17.5243 11.1051L9.93791 15.8913L6.661 14.8685C5.95333 14.6518 5.94825 14.1656 6.81988 13.8159L19.5892 8.89214C20.1725 8.62736 20.7354 9.03221 20.5127 9.92484L18.3381 20.1725C18.1862 20.9007 17.7462 21.0749 17.1366 20.7385L13.824 18.2911L12.2317 19.8394C12.2267 19.8442 12.2217 19.8491 12.2167 19.8539C12.0386 20.0273 11.8913 20.1708 11.5689 20.1708Z" fill="#A0A3BD"/>
</svg>  