  <svg width="27" height="28" viewBox="0 0 27 28" fill="none" xmlns="http://www.w3.org/2000/svg">
                <path d="M13.4261 0.838318C6.1056 0.838318 0.169434 6.92359 0.169434 14.4305C0.169434 20.4359 3.96787 25.5308 9.23514 27.328C9.89767 27.4539 10.1409 27.0332 10.1409 26.6742C10.1409 26.3501 10.1286 25.2794 10.1229 24.1436C6.43489 24.9658 5.65667 22.5399 5.65667 22.5399C5.05364 20.9688 4.18476 20.5511 4.18476 20.5511C2.98198 19.7075 4.27542 19.7248 4.27542 19.7248C5.60662 19.8207 6.30756 21.1255 6.30756 21.1255C7.48992 23.2034 9.40878 22.6027 10.1653 22.2554C10.2842 21.3769 10.6278 20.7773 11.0069 20.4379C8.06244 20.0942 4.96714 18.9287 4.96714 13.7206C4.96714 12.2366 5.485 11.0241 6.33303 10.0722C6.19538 9.7299 5.74163 8.34745 6.46145 6.47523C6.46145 6.47523 7.57466 6.10993 10.108 7.86848C11.1654 7.56732 12.2995 7.41629 13.4261 7.41112C14.5527 7.41629 15.6876 7.56732 16.7471 7.86848C19.2773 6.10993 20.389 6.47523 20.389 6.47523C21.1105 8.34745 20.6566 9.7299 20.5189 10.0722C21.3689 11.0241 21.8833 12.2366 21.8833 13.7206C21.8833 18.9411 18.782 20.0906 15.8301 20.4271C16.3056 20.8489 16.7293 21.676 16.7293 22.9441C16.7293 24.7628 16.7139 26.2265 16.7139 26.6742C16.7139 27.0359 16.9525 27.4597 17.6245 27.3262C22.8889 25.5269 26.6825 20.4338 26.6825 14.4305C26.6825 6.92359 20.7472 0.838318 13.4261 0.838318Z" fill="#A0A3BD"/>
            </svg>   